<svg width="34" height="33" viewBox="0 0 34 33" fill="none" xmlns="http://www.w3.org/2000/svg">
<path fill-rule="evenodd" clip-rule="evenodd" d="M17.0306 0.123718C7.66037 0.123718 0.0620728 7.6229 0.0620728 16.8743C0.0620728 24.2753 4.92407 30.5543 11.6662 32.7692C12.5142 32.9243 12.8256 32.4059 12.8256 31.9634C12.8256 31.564 12.8098 30.2444 12.8025 28.8447C8.08186 29.858 7.08574 26.8684 7.08574 26.8684C6.31386 24.9322 5.20169 24.4174 5.20169 24.4174C3.66214 23.3777 5.31774 23.3991 5.31774 23.3991C7.02168 23.517 7.91888 25.1253 7.91888 25.1253C9.4323 27.6861 11.8885 26.9457 12.8567 26.5177C13.009 25.4354 13.4488 24.6959 13.9341 24.2778C10.1651 23.8543 6.20315 22.4179 6.20315 15.9995C6.20315 14.1706 6.86601 12.6764 7.95148 11.5033C7.7753 11.0811 7.19449 9.37766 8.11586 7.07035C8.11586 7.07035 9.54077 6.62014 12.7834 8.78738C14.1369 8.41623 15.5886 8.2301 17.0306 8.22372C18.4727 8.2301 19.9254 8.41623 21.2814 8.78738C24.5202 6.62014 25.9431 7.07035 25.9431 7.07035C26.8667 9.37766 26.2856 11.0811 26.1094 11.5033C27.1974 12.6764 27.8558 14.1706 27.8558 15.9995C27.8558 22.4332 23.8862 23.8498 20.1077 24.2645C20.7164 24.7843 21.2587 25.8037 21.2587 27.3665C21.2587 29.6076 21.239 31.4114 21.239 31.9634C21.239 32.4092 21.5445 32.9315 22.4046 32.767C29.143 30.5496 33.9988 24.2728 33.9988 16.8743C33.9988 7.6229 26.4017 0.123718 17.0306 0.123718Z" fill="white"/>
<path fill-rule="evenodd" clip-rule="evenodd" d="M6.48892 24.1741C6.45154 24.2576 6.31892 24.2823 6.19809 24.2251C6.07501 24.1705 6.00589 24.057 6.04579 23.9735C6.08232 23.8878 6.21523 23.8642 6.33802 23.9211C6.46138 23.976 6.53163 24.0906 6.48892 24.1741Z" fill="white"/>
<path fill-rule="evenodd" clip-rule="evenodd" d="M7.17622 24.9308C7.0953 25.0049 6.9371 24.9705 6.82976 24.8534C6.71877 24.7366 6.69797 24.5805 6.78002 24.5053C6.86348 24.4312 7.0169 24.4659 7.12817 24.5827C7.23916 24.7008 7.2608 24.8559 7.17622 24.9308Z" fill="white"/>
<path fill-rule="evenodd" clip-rule="evenodd" d="M7.84526 25.8956C7.7413 25.9668 7.5713 25.9 7.4662 25.751C7.36224 25.6021 7.36224 25.4234 7.46845 25.3519C7.57382 25.2803 7.7413 25.3447 7.84779 25.4925C7.95148 25.6437 7.95148 25.8226 7.84526 25.8956Z" fill="white"/>
<path fill-rule="evenodd" clip-rule="evenodd" d="M8.76186 26.8276C8.66885 26.9288 8.47075 26.9016 8.32576 26.7635C8.17739 26.6284 8.13609 26.4367 8.22938 26.3355C8.32351 26.234 8.52273 26.2625 8.66885 26.3996C8.81609 26.5344 8.86105 26.7274 8.76186 26.8276Z" fill="white"/>
<path fill-rule="evenodd" clip-rule="evenodd" d="M10.0263 27.3688C9.9853 27.5 9.7945 27.5596 9.6023 27.5039C9.41039 27.4464 9.28478 27.2928 9.32356 27.1602C9.36346 27.0281 9.5551 26.966 9.7487 27.0256C9.94034 27.0828 10.0662 27.2353 10.0263 27.3688Z" fill="white"/>
<path fill-rule="evenodd" clip-rule="evenodd" d="M11.415 27.4692C11.4198 27.6073 11.2568 27.7219 11.055 27.7241C10.8522 27.7288 10.6881 27.617 10.6858 27.4811C10.6858 27.3416 10.8451 27.2281 11.048 27.2248C11.2498 27.2209 11.415 27.3319 11.415 27.4692Z" fill="white"/>
<path fill-rule="evenodd" clip-rule="evenodd" d="M12.7073 27.252C12.7314 27.3868 12.5912 27.5252 12.3909 27.5618C12.1939 27.5976 12.0115 27.5144 11.9865 27.3807C11.9621 27.2426 12.1048 27.1041 12.3015 27.0684C12.5021 27.034 12.6817 27.115 12.7073 27.252Z" fill="white"/>
</svg>
