<svg width="34" height="34" viewBox="0 0 34 34" fill="none" xmlns="http://www.w3.org/2000/svg">
<path fill-rule="evenodd" clip-rule="evenodd" d="M0 17C0 7.61116 7.61116 0 17 0C26.3888 0 34 7.61116 34 17C34 26.3888 26.3888 34 17 34C7.61116 34 0 26.3888 0 17ZM12.0137 14.0801H8.16115V25.6555H12.0137V14.0801ZM12.2675 10.4994C12.2425 9.36445 11.4308 8.5 10.1129 8.5C8.79496 8.5 7.93333 9.36445 7.93333 10.4994C7.93333 11.6109 8.76949 12.5002 10.0629 12.5002H10.0875C11.4308 12.5002 12.2675 11.6109 12.2675 10.4994ZM25.9076 19.0186C25.9076 15.4631 24.007 13.8083 21.4718 13.8083C19.4263 13.8083 18.5106 14.9318 17.9992 15.72V14.0805H14.1462C14.197 15.1666 14.1462 25.6558 14.1462 25.6558H17.9992V19.1912C17.9992 18.8452 18.0242 18.5001 18.1261 18.2524C18.4045 17.5613 19.0385 16.8457 20.1029 16.8457C21.4975 16.8457 22.055 17.9072 22.055 19.4627V25.6555H25.9074L25.9076 19.0186Z" fill="white"/>
</svg>
