<svg xmlns="http://www.w3.org/2000/svg" width="34" height="33" fill="none" viewBox="0 0 34 33"><path fill="#fff" fill-rule="evenodd" d="M0 16.5C0 7.3873 7.61116 0 17 0C26.3888 0 34 7.3873 34 16.5C34 25.6127 26.3888 33 17 33C7.61116 33 0 25.6127 0 16.5ZM16.4909 13.4114L16.5265 13.9823L15.932 13.9124C13.7678 13.6444 11.8771 12.7356 10.2718 11.2092L9.48697 10.4519L9.28482 11.0111C8.85673 12.2579 9.13023 13.5745 10.0221 14.4601C10.4977 14.9494 10.3907 15.0194 9.5702 14.7281C9.28482 14.6348 9.0351 14.5649 9.01132 14.5999C8.92808 14.6814 9.21347 15.7418 9.4394 16.1612C9.74857 16.7438 10.3788 17.3148 11.0685 17.6527L11.6512 17.9206L10.9615 17.9323C10.2956 17.9323 10.2718 17.9439 10.3431 18.1886C10.581 18.946 11.5204 19.75 12.5668 20.0995L13.304 20.3442L12.6619 20.7171C11.7106 21.2531 10.5928 21.556 9.47507 21.5793C8.93997 21.591 8.5 21.6376 8.5 21.6725C8.5 21.789 9.95072 22.4415 10.795 22.6979C13.3278 23.4552 16.3363 23.129 18.5956 21.8356C20.2009 20.9152 21.8062 19.0858 22.5553 17.3148C22.9596 16.371 23.3639 14.6465 23.3639 13.8192C23.3639 13.2832 23.3996 13.2133 24.0655 12.5725C24.4579 12.1996 24.8265 11.7918 24.8979 11.6753C25.0168 11.4539 25.0049 11.4539 24.3985 11.652C23.3877 12.0015 23.245 11.9549 23.7445 11.4306C24.1131 11.0577 24.5531 10.3819 24.5531 10.1839C24.5531 10.1489 24.3747 10.2072 24.1725 10.312C23.9585 10.4286 23.4828 10.6033 23.1261 10.7082L22.484 10.9063L21.9013 10.5218C21.5803 10.312 21.1284 10.079 20.8906 10.0091C20.2841 9.84596 19.3566 9.86927 18.8096 10.0557C17.3232 10.58 16.3838 11.9316 16.4909 13.4114Z" clip-rule="evenodd"/></svg>