<svg xmlns="http://www.w3.org/2000/svg" width="211" height="90" fill="none" viewBox="0 0 211 90"><path fill="#FDF36D" d="M185.453 89.793C177.984 90.5273 173.406 85.7852 168.164 82.9102C166.383 81.9258 165.48 78.7773 164.832 76.4414C164.016 73.5078 163.934 70.3867 163.434 67.3594C162.191 59.7695 158.926 53.3828 152.594 48.6953C151.293 47.7422 150.422 46.207 148.789 44.2578C153.617 42.918 156.797 44.6719 159.965 46.0547C163.242 47.4922 166.395 49.207 170.199 51.0859C171.305 40.7461 170.902 30.4922 170.613 18.8789C168.055 21.0352 166.324 22.3906 164.707 23.8711C155.164 32.6758 145.734 41.6055 136.082 50.2734C132.207 53.7539 127.992 56.9062 123.648 59.8086C117.219 64.0937 112.918 63.7617 106.805 59.1758C104.508 57.4453 101.965 55.9687 99.9453 53.9609C96.0859 50.1055 93.0703 45.6836 91.7422 40.207C90.6094 35.5234 89.0312 30.9453 87.6367 26.2187C82.7969 27.3125 79.3086 29.9102 76.0586 32.6875C69.0781 38.6602 62.3125 44.9102 55.3437 50.9062C50.5742 55.0117 45.6914 59.0234 40.6719 62.8242C35.9414 66.418 32.3164 66.9141 25.957 62.0234C18.4336 56.2422 13.2891 48.9453 12.6641 38.9219C12.4023 34.6641 10.8828 30.4766 9.88672 26.2617C9 22.5 6.17969 20.1641 3.42969 17.8711C1.5625 16.3086 -0.152347 14.8437 0.316403 11.8164C3.24609 10.5156 5.83594 11.8164 8.22656 13.3086C17.3945 19.043 24.4492 26.4687 26.9375 37.418C27.4062 39.5156 28.1562 41.5508 28.9297 44.1602C30.2305 43.2617 31.5703 42.5156 32.6758 41.5234C39.2617 35.6328 45.6758 29.5664 52.3555 23.7852C56.6992 20.0117 61.2227 16.418 65.9219 13.1133C72.5352 8.4414 79.5742 8.88281 86.3086 12.8672C96.0859 18.6562 103.527 26.4805 106.582 37.8164C107.051 39.5586 107.562 41.2852 108.117 43C108.215 43.3047 108.586 43.5273 109.223 44.1914C112.047 42.1289 115.102 40.25 117.758 37.8984C126.691 30.0352 135.418 21.9336 144.352 14.082C148.941 10.0469 153.824 6.3125 158.621 2.51172C162.441 -0.500004 166.23 -0.542972 170.625 1.84765C180.129 7.03125 185.949 14.332 185.633 25.5273C185.367 34.8984 184.816 44.2578 184.402 53.6172C184.332 55.1641 184.262 56.7148 185.078 58.5937C188.23 54.0586 191.355 49.4961 194.566 45.0039C195.977 43.0273 196.875 40.332 200.207 40.8164C203.969 41.3555 207.883 41.6875 210.289 45.1172C210.941 46.043 211.008 47.9062 210.539 49C209.336 51.8047 207.801 54.4883 206.184 57.1016C199.82 67.3867 193.391 77.6133 186.961 87.8594C186.488 88.6055 185.867 89.2695 185.453 89.793Z"/></svg>