<svg xmlns="http://www.w3.org/2000/svg" width="138" height="46" fill="none" viewBox="0 0 138 46"><path fill="#FDF36D" d="M19.4376 4.28119L31.9869 35.3743H24.3778L22.0778 29.1547H10.2424L7.94715 35.3743H0.333191L12.8826 4.28119H19.4376ZM19.6676 22.9399L16.1984 13.8933H16.1217L12.6574 22.9399H19.6676Z"/><path fill="#FDF36D" d="M33.1951 35.3743V16.0399H39.8651V18.0764H39.9418C41.6728 16.3418 43.5188 15.4745 45.481 15.4745C46.4357 15.4745 47.3845 15.6015 48.3272 15.8531C49.2688 16.1058 50.1732 16.4951 51.0393 17.0222C51.9042 17.5493 52.6074 18.2968 53.1476 19.2647C53.6903 20.2326 53.9622 21.3575 53.9622 22.6381V35.3743H47.2874V24.4445C47.2874 23.4419 46.9664 22.5638 46.3243 21.8091C45.6846 21.0556 44.8509 20.6783 43.823 20.6783C42.8168 20.6783 41.904 21.0688 41.087 21.8474C40.2724 22.6237 39.8651 23.4898 39.8651 24.4445V35.3743H33.1951Z"/><path fill="#FDF36D" d="M66.5103 15.4745C67.6147 15.4745 68.7072 15.6015 69.7878 15.8531C70.8671 16.1058 71.6709 16.3562 72.198 16.6054L72.9934 16.9839L70.8036 21.3539C69.299 20.5525 67.8675 20.1512 66.5103 20.1512C65.7556 20.1512 65.2213 20.2326 64.9051 20.3956C64.5912 20.5585 64.4355 20.8651 64.4355 21.3156C64.4355 21.4186 64.4475 21.5204 64.4738 21.6222C64.499 21.7217 64.5481 21.8163 64.6223 21.9049C64.699 21.9912 64.7673 22.0667 64.8284 22.1301C64.8919 22.1912 64.9985 22.2595 65.1494 22.3362C65.3028 22.4105 65.4226 22.4656 65.5088 22.5039C65.5975 22.5422 65.7436 22.5997 65.9448 22.6764C66.1461 22.7507 66.2958 22.8058 66.3953 22.8441C66.4971 22.8824 66.666 22.9399 66.9032 23.0166C67.1428 23.0909 67.3248 23.14 67.4494 23.1651C68.2281 23.3927 68.9073 23.6443 69.4859 23.9222C70.0633 24.1978 70.6718 24.5727 71.3115 25.0483C71.9536 25.525 72.4495 26.1288 72.8017 26.8595C73.1527 27.5879 73.3288 28.4168 73.3288 29.3464C73.3288 33.7428 70.2765 35.9397 64.1719 35.9397C62.7919 35.9397 61.479 35.7265 60.2332 35.3024C58.9897 34.8748 58.0925 34.4471 57.5403 34.0183L56.7113 33.3379L59.4234 28.781C59.6246 28.9571 59.8882 29.1643 60.214 29.4039C60.5422 29.6411 61.134 29.9669 61.9869 30.3814C62.8398 30.7971 63.5802 31.0043 64.2103 31.0043C65.5927 31.0043 66.2851 30.5395 66.2851 29.6099C66.2851 29.1823 66.1078 28.8505 65.7532 28.6133C65.401 28.3737 64.8044 28.1042 63.9611 27.8035C63.1202 27.5004 62.4625 27.2225 61.9869 26.9697C60.7794 26.3408 59.8235 25.6317 59.1215 24.8422C58.4183 24.0504 58.0673 23.001 58.0673 21.6941C58.0673 19.7367 58.8268 18.2106 60.3482 17.1181C61.8683 16.0232 63.9228 15.4745 66.5103 15.4745Z"/><path fill="#FDF36D" d="M82.9388 16.0399V25.2351C82.9388 27.1458 83.2275 28.503 83.8061 29.308C84.3835 30.1106 85.3634 30.5108 86.7434 30.5108C88.1258 30.5108 89.1069 30.1106 89.6855 29.308C90.2629 28.503 90.5528 27.1458 90.5528 25.2351V16.0399H97.2227V26.8595C97.2227 30.0735 96.3866 32.3915 94.7167 33.8122C93.0456 35.2305 90.3874 35.9397 86.7434 35.9397C83.1017 35.9397 80.4447 35.2305 78.7748 33.8122C77.1037 32.3915 76.2688 30.0735 76.2688 26.8595V16.0399H82.9388Z"/><path fill="#FDF36D" d="M121.264 18.4549C123.076 20.4387 123.981 22.8633 123.981 25.7287C123.981 28.5917 123.076 31.0091 121.264 32.9833C119.455 34.955 117.158 35.9397 114.369 35.9397C111.807 35.9397 109.697 35.0233 108.039 33.1893H107.963V35.3743H101.369V2.96347H108.039V17.8895C109.697 16.2795 111.807 15.4745 114.369 15.4745C117.158 15.4745 119.455 16.4688 121.264 18.4549ZM115.648 28.987C116.479 28.1437 116.894 27.0584 116.894 25.7287C116.894 24.3966 116.461 23.3041 115.596 22.4512C114.73 21.5959 113.655 21.167 112.371 21.167C111.116 21.167 110.054 21.5959 109.189 22.4512C108.323 23.3041 107.891 24.3966 107.891 25.7287C107.891 27.0356 108.31 28.1149 109.151 28.9678C109.994 29.8208 111.068 30.2472 112.371 30.2472C113.728 30.2472 114.821 29.8279 115.648 28.987Z"/><path fill="#FDF36D" d="M131.407 27.3099C132.611 27.3099 133.633 27.7316 134.474 28.5749C135.317 29.4159 135.739 30.4377 135.739 31.6416C135.739 32.8239 135.317 33.8362 134.474 34.6795C133.633 35.5193 132.611 35.9397 131.407 35.9397C130.224 35.9397 129.212 35.5193 128.369 34.6795C127.528 33.8362 127.109 32.8239 127.109 31.6416C127.109 30.4377 127.528 29.4159 128.369 28.5749C129.212 27.7316 130.224 27.3099 131.407 27.3099Z"/></svg>