<svg xmlns="http://www.w3.org/2000/svg" width="1440" viewBox="0 0 1440 810" height="810" version="1.0"><g fill="#FDF36D"><g><g><path d="M 172.265625 -296.703125 L 292.03125 0 L 219.375 0 L 197.4375 -59.34375 L 84.515625 -59.34375 L 62.578125 0 L -10.0625 0 L 109.6875 -296.703125 Z M 174.421875 -118.6875 L 141.34375 -205 L 140.625 -205 L 107.53125 -118.6875 Z M 174.421875 -118.6875" transform="translate(82.641 577.418)"/></g></g></g><g fill="#FDF36D"><g><g><path d="M 21.578125 0 L 21.578125 -184.5 L 85.234375 -184.5 L 85.234375 -165.078125 L 85.953125 -165.078125 C 102.492188 -181.617188 120.117188 -189.890625 138.828125 -189.890625 C 147.929688 -189.890625 156.976562 -188.691406 165.96875 -186.296875 C 174.957031 -183.898438 183.585938 -180.179688 191.859375 -175.140625 C 200.140625 -170.109375 206.851562 -162.976562 212 -153.75 C 217.15625 -144.519531 219.734375 -133.789062 219.734375 -121.5625 L 219.734375 0 L 156.078125 0 L 156.078125 -104.296875 C 156.078125 -113.890625 153.019531 -122.28125 146.90625 -129.46875 C 140.800781 -136.664062 132.832031 -140.265625 123 -140.265625 C 113.40625 -140.265625 104.710938 -136.546875 96.921875 -129.109375 C 89.128906 -121.679688 85.234375 -113.410156 85.234375 -104.296875 L 85.234375 0 Z M 21.578125 0" transform="translate(364.594 577.418)"/></g></g></g><g fill="#FDF36D"><g><g><path d="M 101.78125 -189.890625 C 112.332031 -189.890625 122.757812 -188.691406 133.0625 -186.296875 C 143.375 -183.898438 151.046875 -181.5 156.078125 -179.09375 L 163.640625 -175.5 L 142.78125 -133.78125 C 128.394531 -141.457031 114.726562 -145.296875 101.78125 -145.296875 C 94.582031 -145.296875 89.484375 -144.515625 86.484375 -142.953125 C 83.492188 -141.398438 82 -138.460938 82 -134.140625 C 82 -133.179688 82.117188 -132.222656 82.359375 -131.265625 C 82.597656 -130.304688 83.078125 -129.40625 83.796875 -128.5625 C 84.515625 -127.726562 85.171875 -127.007812 85.765625 -126.40625 C 86.367188 -125.8125 87.390625 -125.15625 88.828125 -124.4375 C 90.265625 -123.71875 91.398438 -123.175781 92.234375 -122.8125 C 93.078125 -122.457031 94.457031 -121.921875 96.375 -121.203125 C 98.300781 -120.484375 99.742188 -119.941406 100.703125 -119.578125 C 101.660156 -119.222656 103.273438 -118.6875 105.546875 -117.96875 C 107.828125 -117.25 109.566406 -116.769531 110.765625 -116.53125 C 118.203125 -114.363281 124.675781 -111.960938 130.1875 -109.328125 C 135.707031 -106.691406 141.519531 -103.09375 147.625 -98.53125 C 153.738281 -93.976562 158.472656 -88.222656 161.828125 -81.265625 C 165.191406 -74.316406 166.875 -66.410156 166.875 -57.546875 C 166.875 -15.585938 137.742188 5.390625 79.484375 5.390625 C 66.296875 5.390625 53.765625 3.351562 41.890625 -0.71875 C 30.023438 -4.789062 21.457031 -8.867188 16.1875 -12.953125 L 8.265625 -19.421875 L 34.171875 -62.9375 C 36.085938 -61.257812 38.601562 -59.28125 41.71875 -57 C 44.832031 -54.726562 50.460938 -51.613281 58.609375 -47.65625 C 66.765625 -43.695312 73.84375 -41.71875 79.84375 -41.71875 C 93.03125 -41.71875 99.625 -46.15625 99.625 -55.03125 C 99.625 -59.101562 97.941406 -62.273438 94.578125 -64.546875 C 91.222656 -66.828125 85.53125 -69.40625 77.5 -72.28125 C 69.46875 -75.164062 63.175781 -77.804688 58.625 -80.203125 C 47.113281 -86.191406 38 -92.960938 31.28125 -100.515625 C 24.570312 -108.066406 21.21875 -118.078125 21.21875 -130.546875 C 21.21875 -149.242188 28.46875 -163.804688 42.96875 -174.234375 C 57.476562 -184.671875 77.082031 -189.890625 101.78125 -189.890625 Z M 101.78125 -189.890625" transform="translate(602.312 577.418)"/></g></g></g><g fill="#FDF36D"><g><g><path d="M 81.640625 -184.5 L 81.640625 -96.75 C 81.640625 -78.519531 84.394531 -65.566406 89.90625 -57.890625 C 95.425781 -50.222656 104.78125 -46.390625 117.96875 -46.390625 C 131.15625 -46.390625 140.503906 -50.222656 146.015625 -57.890625 C 151.523438 -65.566406 154.28125 -78.519531 154.28125 -96.75 L 154.28125 -184.5 L 217.9375 -184.5 L 217.9375 -81.28125 C 217.9375 -50.59375 209.960938 -28.472656 194.015625 -14.921875 C 178.078125 -1.378906 152.722656 5.390625 117.953125 5.390625 C 83.191406 5.390625 57.835938 -1.378906 41.890625 -14.921875 C 25.953125 -28.472656 17.984375 -50.59375 17.984375 -81.28125 L 17.984375 -184.5 Z M 81.640625 -184.5" transform="translate(779.252 577.418)"/></g></g></g><g fill="#FDF36D"><g><g><path d="M 211.46875 -161.46875 C 228.726562 -142.53125 237.359375 -119.394531 237.359375 -92.0625 C 237.359375 -64.726562 228.726562 -41.648438 211.46875 -22.828125 C 194.207031 -4.015625 172.269531 5.390625 145.65625 5.390625 C 121.195312 5.390625 101.054688 -3.359375 85.234375 -20.859375 L 84.515625 -20.859375 L 84.515625 0 L 21.578125 0 L 21.578125 -309.296875 L 85.234375 -309.296875 L 85.234375 -166.875 C 101.054688 -182.21875 121.195312 -189.890625 145.65625 -189.890625 C 172.269531 -189.890625 194.207031 -180.414062 211.46875 -161.46875 Z M 157.875 -60.953125 C 165.789062 -68.984375 169.75 -79.351562 169.75 -92.0625 C 169.75 -104.769531 165.613281 -115.195312 157.34375 -123.34375 C 149.070312 -131.5 138.820312 -135.578125 126.59375 -135.578125 C 114.601562 -135.578125 104.472656 -131.5 96.203125 -123.34375 C 87.929688 -115.195312 83.796875 -104.769531 83.796875 -92.0625 C 83.796875 -79.59375 87.8125 -69.28125 95.84375 -61.125 C 103.875 -52.976562 114.125 -48.90625 126.59375 -48.90625 C 139.539062 -48.90625 149.96875 -52.921875 157.875 -60.953125 Z M 157.875 -60.953125" transform="translate(1015.171 577.418)"/></g></g></g><g fill="#FDF36D"><g><g><path d="M 62.578125 -76.96875 C 74.085938 -76.96875 83.859375 -72.945312 91.890625 -64.90625 C 99.921875 -56.875 103.9375 -47.109375 103.9375 -35.609375 C 103.9375 -24.335938 99.921875 -14.6875 91.890625 -6.65625 C 83.859375 1.375 74.085938 5.390625 62.578125 5.390625 C 51.304688 5.390625 41.65625 1.375 33.625 -6.65625 C 25.59375 -14.6875 21.578125 -24.335938 21.578125 -35.609375 C 21.578125 -47.109375 25.59375 -56.875 33.625 -64.90625 C 41.65625 -72.945312 51.304688 -76.96875 62.578125 -76.96875 Z M 62.578125 -76.96875" transform="translate(1260.801 577.418)"/></g></g></g><g><g><g><path d="M 25.84375 46.683594 C 27.71875 46.683594 28.554688 45.851562 28.96875 44.808594 C 30.21875 42.308594 30.636719 40.640625 30.636719 38.140625 C 30.636719 35.429688 31.054688 26.46875 31.679688 23.757812 C 32.929688 20.007812 33.972656 15.839844 35.015625 12.296875 C 37.308594 6.042969 38.972656 -0.417969 40.851562 -6.878906 C 43.558594 -11.464844 45.019531 -16.671875 46.894531 -21.882812 C 47.3125 -22.71875 47.519531 -24.386719 49.601562 -24.800781 C 51.894531 -25.011719 54.398438 -26.050781 56.898438 -26.050781 C 60.859375 -26.675781 64.609375 -26.675781 68.152344 -27.300781 C 70.238281 -27.71875 72.738281 -27.511719 74.820312 -27.511719 C 76.699219 -27.71875 78.15625 -27.929688 80.449219 -27.511719 C 82.117188 -27.09375 84.410156 -28.34375 86.703125 -28.136719 L 88.578125 -28.136719 C 90.035156 -28.136719 91.078125 -28.136719 92.539062 -27.929688 C 93.578125 -27.929688 95.664062 -28.136719 96.914062 -27.929688 C 96.496094 -25.84375 96.289062 -25.21875 96.082031 -25.011719 C 95.664062 -23.132812 89.828125 -4.375 88.367188 5.210938 C 87.742188 8.753906 87.953125 11.878906 88.578125 15.632812 C 89.410156 17.925781 90.035156 20.007812 91.078125 21.46875 C 92.746094 23.757812 93.578125 25.011719 96.082031 26.261719 L 97.121094 25.011719 L 97.121094 23.34375 L 96.289062 21.46875 C 95.664062 19.382812 95.246094 16.671875 95.246094 13.964844 C 95.246094 11.464844 95.871094 10.003906 96.082031 8.753906 C 96.082031 7.503906 96.496094 6.460938 96.707031 4.792969 C 96.496094 4.585938 97.332031 1.667969 97.746094 1.667969 C 98.375 1.042969 98.789062 0 99.414062 -1.25 C 100.25 -3.542969 100.664062 -5.210938 101.917969 -7.292969 C 102.332031 -8.753906 102.332031 -10.210938 100.875 -11.464844 C 99.414062 -13.128906 100.039062 -13.753906 102.125 -14.378906 C 102.75 -14.589844 103.375 -15.007812 104 -15.421875 C 105.042969 -17.714844 105.875 -22.300781 106.5 -23.757812 L 107.542969 -26.46875 C 108.585938 -26.675781 112.128906 -25.636719 113.171875 -25.425781 C 113.796875 -25.21875 114.210938 -25.21875 114.839844 -25.21875 C 117.757812 -25.425781 118.589844 -22.925781 123.175781 -23.132812 C 124.425781 -22.925781 128.175781 -23.132812 126.507812 -25.425781 L 122.132812 -28.761719 C 117.964844 -31.054688 116.921875 -31.472656 114.839844 -32.097656 C 111.710938 -33.136719 111.085938 -33.347656 109.835938 -33.972656 C 110.878906 -35.847656 111.503906 -38.558594 112.753906 -40.433594 C 113.378906 -42.726562 115.046875 -45.644531 116.089844 -48.144531 L 120.257812 -60.023438 C 121.925781 -62.941406 122.964844 -65.859375 123.800781 -68.570312 C 124.84375 -70.652344 124.632812 -72.945312 123.589844 -74.820312 C 122.339844 -77.324219 121.925781 -77.949219 119.007812 -77.949219 C 116.921875 -78.15625 115.671875 -77.113281 114.210938 -74.40625 L 113.585938 -72.738281 C 109.835938 -62.109375 106.085938 -51.269531 102.542969 -40.222656 C 101.917969 -38.558594 101.082031 -37.515625 100.457031 -35.847656 C 100.457031 -35.222656 99.414062 -35.222656 98.789062 -35.222656 C 84.824219 -36.472656 70.238281 -37.933594 55.855469 -36.054688 C 55.4375 -36.054688 55.023438 -36.472656 53.980469 -37.515625 C 55.230469 -39.597656 55.4375 -41.683594 56.273438 -42.726562 C 58.773438 -47.726562 59.816406 -52.3125 61.898438 -56.691406 C 62.734375 -60.859375 64.402344 -65.652344 65.027344 -68.984375 C 66.277344 -72.738281 66.695312 -76.28125 66.902344 -80.03125 C 67.109375 -82.742188 66.066406 -85.867188 64.816406 -88.578125 C 62.316406 -93.371094 59.191406 -96.707031 53.773438 -98.164062 C 50.019531 -99 46.894531 -98.789062 43.976562 -96.707031 C 40.851562 -94.414062 37.308594 -91.914062 34.179688 -88.160156 C 26.46875 -79.617188 20.007812 -70.238281 13.546875 -61.066406 C 12.714844 -59.191406 12.089844 -57.730469 10.835938 -56.273438 C 10.003906 -54.8125 10.210938 -52.730469 11.878906 -51.269531 C 12.503906 -50.019531 13.546875 -48.769531 15.214844 -47.9375 C 16.464844 -47.101562 17.714844 -47.9375 18.550781 -49.601562 C 19.175781 -52.9375 20.007812 -55.648438 22.300781 -58.148438 C 27.511719 -66.902344 33.972656 -75.863281 41.058594 -83.574219 C 43.558594 -87.117188 47.3125 -89.621094 51.269531 -92.121094 C 52.105469 -92.746094 52.519531 -92.746094 53.773438 -92.746094 C 55.230469 -93.371094 56.0625 -92.953125 56.480469 -91.914062 C 57.105469 -89.621094 57.730469 -87.953125 57.941406 -86.492188 C 59.191406 -81.28125 57.941406 -76.28125 57.316406 -71.277344 C 55.648438 -62.316406 48.5625 -46.269531 44.808594 -39.390625 C 43.769531 -36.472656 42.933594 -35.222656 39.808594 -35.640625 C 37.722656 -35.640625 36.679688 -33.972656 36.472656 -31.679688 C 36.679688 -30.429688 37.308594 -28.136719 37.722656 -27.09375 C 38.347656 -24.59375 38.140625 -22.09375 36.679688 -20.214844 C 36.054688 -17.714844 35.640625 -15.839844 34.597656 -13.546875 C 32.929688 -10.421875 31.886719 -6.667969 30.636719 -3.542969 C 30.011719 -1.042969 29.386719 0.417969 29.386719 2.917969 C 29.386719 3.542969 28.761719 4.375 27.929688 5.628906 C 27.71875 6.253906 27.300781 6.878906 27.300781 7.503906 C 24.175781 16.257812 22.507812 25.425781 21.46875 34.390625 C 21.050781 37.097656 20.632812 40.640625 21.050781 44.808594 C 22.507812 45.851562 23.757812 46.683594 25.84375 46.683594 Z M 25.84375 46.683594" transform="translate(156.202 414.375)"/></g></g></g><g><g><g><path d="M 54.8125 -20.425781 C 55.4375 -20.839844 55.855469 -21.46875 56.480469 -21.882812 C 56.480469 -22.09375 56.273438 -22.09375 56.273438 -22.09375 L 55.855469 -23.550781 L 48.769531 -18.339844 C 48.351562 -17.925781 47.101562 -17.296875 46.269531 -16.882812 C 44.183594 -15.632812 40.222656 -13.339844 38.347656 -12.089844 L 37.722656 -11.671875 L 30.847656 -7.710938 C 29.804688 -7.085938 28.761719 -7.085938 27.71875 -6.667969 C 26.050781 -6.042969 24.386719 -5.210938 22.925781 -4.585938 C 21.050781 -3.960938 19.175781 -3.125 17.296875 -2.917969 C 14.589844 -2.5 11.878906 -2.710938 9.171875 -2.5 C 7.503906 -3.125 7.085938 -3.542969 6.253906 -6.042969 C 7.710938 -6.878906 8.335938 -7.085938 10.003906 -7.917969 C 10.421875 -8.335938 10.835938 -8.960938 11.464844 -9.171875 C 12.714844 -10.003906 14.378906 -10.628906 15.839844 -11.464844 C 16.046875 -11.671875 16.046875 -12.296875 16.257812 -12.503906 L 19.175781 -14.589844 C 20.007812 -15.007812 21.46875 -15.214844 21.675781 -16.671875 C 21.882812 -17.296875 23.132812 -17.507812 23.757812 -18.132812 C 25.636719 -20.007812 27.511719 -21.882812 29.386719 -23.96875 C 30.011719 -24.59375 30.636719 -25.636719 31.054688 -26.675781 C 31.679688 -28.34375 30.636719 -31.886719 28.96875 -32.929688 C 27.511719 -34.179688 25.84375 -35.429688 23.96875 -36.265625 C 22.507812 -37.097656 20.632812 -38.558594 18.550781 -37.722656 C 17.714844 -37.515625 17.089844 -37.308594 16.464844 -37.308594 C 13.753906 -37.097656 11.464844 -35.847656 9.585938 -33.972656 C 7.710938 -31.886719 5.835938 -29.804688 3.960938 -27.511719 C 2.917969 -26.261719 2.085938 -25.011719 1.25 -23.757812 C -0.832031 -19.800781 -1.875 -15.839844 -2.085938 -11.671875 C -2.085938 -10.210938 -2.292969 -8.753906 -1.25 -6.253906 C -0.832031 -4.167969 -0.832031 -4.167969 -0.417969 -3.75 C 0.832031 -1.875 1.667969 -0.625 3.125 0.417969 C 3.335938 0.625 3.960938 0.832031 4.167969 1.25 C 6.253906 2.917969 7.085938 3.125 8.960938 3.75 C 10.835938 4.375 13.128906 4.792969 15.214844 5.003906 C 16.882812 5.210938 18.339844 4.792969 20.007812 4.375 C 21.050781 4.167969 22.300781 3.960938 23.132812 3.542969 C 23.757812 3.125 24.175781 2.917969 25.011719 2.917969 C 26.46875 2.710938 27.929688 2.710938 29.179688 2.085938 C 31.261719 1.25 32.929688 -0.207031 34.804688 -1.25 C 36.265625 -2.292969 37.515625 -3.125 39.183594 -3.960938 L 43.140625 -7.085938 C 43.976562 -7.710938 45.019531 -8.546875 45.851562 -9.378906 C 46.058594 -9.585938 46.894531 -10.421875 47.101562 -11.046875 L 47.101562 -11.253906 C 47.3125 -12.714844 48.144531 -13.128906 48.976562 -13.753906 C 48.351562 -14.378906 48.769531 -14.796875 49.601562 -15.214844 L 50.230469 -16.046875 C 51.269531 -16.671875 51.269531 -17.296875 51.6875 -17.714844 Z M 7.503906 -18.757812 C 8.753906 -21.257812 10.210938 -23.757812 11.878906 -26.050781 C 13.339844 -27.929688 15.214844 -28.96875 17.089844 -30.429688 C 18.757812 -31.679688 20.632812 -31.679688 22.507812 -32.511719 C 23.34375 -32.929688 24.386719 -31.054688 23.757812 -30.011719 C 22.925781 -28.554688 22.09375 -27.300781 20.839844 -26.261719 L 15.214844 -21.257812 L 9.585938 -16.671875 C 8.753906 -16.046875 7.710938 -15.421875 6.042969 -14.378906 C 6.460938 -16.046875 6.878906 -17.507812 7.503906 -18.757812 Z M 7.503906 -18.757812" transform="translate(287.505 414.375)"/></g></g></g><g><g><g><path d="M 67.320312 -119.839844 C 66.902344 -120.882812 66.902344 -121.925781 66.695312 -123.589844 C 66.902344 -123.800781 66.902344 -124.21875 66.695312 -124.425781 L 65.441406 -125.46875 C 64.609375 -126.300781 63.566406 -127.132812 62.523438 -127.550781 C 61.898438 -127.96875 60.859375 -128.386719 60.023438 -128.800781 C 57.105469 -129.636719 54.605469 -130.261719 52.3125 -127.96875 C 50.644531 -126.300781 48.769531 -124.425781 46.894531 -122.757812 C 45.019531 -120.882812 43.140625 -118.171875 41.683594 -115.464844 L 33.554688 -100.457031 C 33.347656 -100.039062 32.929688 -100.039062 32.722656 -99.625 L 31.054688 -96.082031 L 29.59375 -91.285156 C 29.386719 -90.453125 27.71875 -87.742188 27.300781 -87.535156 C 27.300781 -87.117188 22.300781 -74.40625 22.09375 -73.988281 C 21.257812 -72.738281 21.257812 -71.488281 20.839844 -70.238281 C 20.007812 -68.570312 19.382812 -66.695312 18.550781 -65.234375 C 17.714844 -62.316406 16.464844 -58.980469 15.632812 -55.855469 C 14.589844 -53.144531 14.171875 -50.230469 13.546875 -47.9375 C 12.921875 -45.019531 12.714844 -43.976562 12.089844 -41.683594 C 11.671875 -40.015625 11.671875 -39.597656 11.671875 -38.765625 L 10.421875 -31.886719 C 8.960938 -23.550781 8.960938 -21.46875 8.753906 -18.757812 C 8.128906 -12.714844 8.128906 -9.171875 8.753906 -3.960938 C 9.171875 -1.667969 9.585938 0.625 10.210938 2.5 C 11.046875 4.375 11.464844 6.042969 12.503906 7.503906 C 13.753906 8.960938 14.589844 10.210938 15.632812 11.464844 C 16.257812 12.089844 17.714844 13.339844 18.757812 13.753906 C 22.507812 15.421875 24.386719 15.214844 27.09375 14.589844 C 31.472656 13.339844 33.761719 5.003906 30.429688 6.460938 C 27.09375 8.753906 25.21875 10.210938 21.882812 8.753906 C 20.425781 8.128906 18.550781 5.210938 17.714844 3.125 C 16.046875 -0.832031 15.214844 -5.628906 15.007812 -11.253906 C 14.796875 -14.796875 15.632812 -20.425781 16.046875 -23.757812 C 16.464844 -26.46875 17.507812 -30.429688 18.550781 -32.097656 C 21.257812 -34.390625 24.59375 -37.933594 26.886719 -40.433594 L 31.054688 -44.394531 C 31.679688 -45.019531 31.679688 -46.058594 32.722656 -46.894531 C 32.722656 -46.894531 32.929688 -47.101562 33.347656 -46.894531 L 44.601562 -61.066406 C 46.058594 -63.152344 58.773438 -85.660156 58.980469 -85.453125 C 59.398438 -86.703125 59.816406 -87.953125 59.605469 -89.203125 C 59.398438 -89.621094 58.980469 -90.246094 59.398438 -90.871094 C 59.816406 -91.285156 60.234375 -92.121094 60.648438 -92.746094 L 61.484375 -96.289062 L 63.777344 -99.207031 L 63.359375 -99.832031 C 63.777344 -100.039062 65.234375 -101.707031 64.191406 -102.957031 L 66.277344 -113.378906 C 65.652344 -115.046875 67.109375 -114.839844 67.109375 -116.503906 Z M 57.523438 -111.503906 C 56.898438 -107.542969 56.0625 -104 54.605469 -100.457031 C 53.5625 -96.707031 51.894531 -93.164062 50.644531 -90.246094 C 48.5625 -85.867188 46.683594 -82.324219 44.808594 -78.15625 C 43.140625 -75.445312 41.890625 -72.945312 40.222656 -70.445312 C 38.972656 -68.570312 37.515625 -66.484375 35.847656 -64.816406 C 33.554688 -61.484375 30.636719 -57.730469 28.136719 -54.605469 C 26.261719 -52.519531 23.757812 -48.976562 22.09375 -47.101562 L 23.34375 -52.9375 C 23.757812 -54.1875 24.386719 -54.8125 24.59375 -55.4375 C 26.050781 -58.355469 26.886719 -61.484375 27.929688 -64.609375 C 29.179688 -66.695312 30.011719 -69.613281 30.847656 -71.488281 C 31.261719 -72.527344 31.054688 -73.363281 31.472656 -74.613281 C 31.472656 -75.65625 32.097656 -76.90625 32.722656 -78.363281 C 33.347656 -79.824219 33.761719 -81.492188 34.804688 -83.367188 C 35.222656 -83.992188 35.640625 -85.035156 36.054688 -85.867188 C 36.890625 -88.160156 37.933594 -90.871094 38.972656 -92.953125 C 39.808594 -95.039062 41.265625 -97.121094 42.308594 -99.207031 C 43.769531 -101.5 45.851562 -103.792969 46.683594 -106.5 C 47.726562 -109.210938 49.601562 -111.503906 51.480469 -113.796875 C 52.730469 -116.089844 54.8125 -117.964844 56.691406 -119.839844 C 57.105469 -120.257812 57.316406 -120.671875 57.523438 -121.089844 L 58.980469 -122.339844 C 59.398438 -122.132812 59.605469 -122.132812 59.816406 -122.132812 C 58.980469 -118.589844 58.773438 -114.839844 57.523438 -111.503906 Z M 57.523438 -111.503906" transform="translate(340.026 414.375)"/></g></g></g><g><g><g><path d="M 67.320312 -119.839844 C 66.902344 -120.882812 66.902344 -121.925781 66.695312 -123.589844 C 66.902344 -123.800781 66.902344 -124.21875 66.695312 -124.425781 L 65.441406 -125.46875 C 64.609375 -126.300781 63.566406 -127.132812 62.523438 -127.550781 C 61.898438 -127.96875 60.859375 -128.386719 60.023438 -128.800781 C 57.105469 -129.636719 54.605469 -130.261719 52.3125 -127.96875 C 50.644531 -126.300781 48.769531 -124.425781 46.894531 -122.757812 C 45.019531 -120.882812 43.140625 -118.171875 41.683594 -115.464844 L 33.554688 -100.457031 C 33.347656 -100.039062 32.929688 -100.039062 32.722656 -99.625 L 31.054688 -96.082031 L 29.59375 -91.285156 C 29.386719 -90.453125 27.71875 -87.742188 27.300781 -87.535156 C 27.300781 -87.117188 22.300781 -74.40625 22.09375 -73.988281 C 21.257812 -72.738281 21.257812 -71.488281 20.839844 -70.238281 C 20.007812 -68.570312 19.382812 -66.695312 18.550781 -65.234375 C 17.714844 -62.316406 16.464844 -58.980469 15.632812 -55.855469 C 14.589844 -53.144531 14.171875 -50.230469 13.546875 -47.9375 C 12.921875 -45.019531 12.714844 -43.976562 12.089844 -41.683594 C 11.671875 -40.015625 11.671875 -39.597656 11.671875 -38.765625 L 10.421875 -31.886719 C 8.960938 -23.550781 8.960938 -21.46875 8.753906 -18.757812 C 8.128906 -12.714844 8.128906 -9.171875 8.753906 -3.960938 C 9.171875 -1.667969 9.585938 0.625 10.210938 2.5 C 11.046875 4.375 11.464844 6.042969 12.503906 7.503906 C 13.753906 8.960938 14.589844 10.210938 15.632812 11.464844 C 16.257812 12.089844 17.714844 13.339844 18.757812 13.753906 C 22.507812 15.421875 24.386719 15.214844 27.09375 14.589844 C 31.472656 13.339844 33.761719 5.003906 30.429688 6.460938 C 27.09375 8.753906 25.21875 10.210938 21.882812 8.753906 C 20.425781 8.128906 18.550781 5.210938 17.714844 3.125 C 16.046875 -0.832031 15.214844 -5.628906 15.007812 -11.253906 C 14.796875 -14.796875 15.632812 -20.425781 16.046875 -23.757812 C 16.464844 -26.46875 17.507812 -30.429688 18.550781 -32.097656 C 21.257812 -34.390625 24.59375 -37.933594 26.886719 -40.433594 L 31.054688 -44.394531 C 31.679688 -45.019531 31.679688 -46.058594 32.722656 -46.894531 C 32.722656 -46.894531 32.929688 -47.101562 33.347656 -46.894531 L 44.601562 -61.066406 C 46.058594 -63.152344 58.773438 -85.660156 58.980469 -85.453125 C 59.398438 -86.703125 59.816406 -87.953125 59.605469 -89.203125 C 59.398438 -89.621094 58.980469 -90.246094 59.398438 -90.871094 C 59.816406 -91.285156 60.234375 -92.121094 60.648438 -92.746094 L 61.484375 -96.289062 L 63.777344 -99.207031 L 63.359375 -99.832031 C 63.777344 -100.039062 65.234375 -101.707031 64.191406 -102.957031 L 66.277344 -113.378906 C 65.652344 -115.046875 67.109375 -114.839844 67.109375 -116.503906 Z M 57.523438 -111.503906 C 56.898438 -107.542969 56.0625 -104 54.605469 -100.457031 C 53.5625 -96.707031 51.894531 -93.164062 50.644531 -90.246094 C 48.5625 -85.867188 46.683594 -82.324219 44.808594 -78.15625 C 43.140625 -75.445312 41.890625 -72.945312 40.222656 -70.445312 C 38.972656 -68.570312 37.515625 -66.484375 35.847656 -64.816406 C 33.554688 -61.484375 30.636719 -57.730469 28.136719 -54.605469 C 26.261719 -52.519531 23.757812 -48.976562 22.09375 -47.101562 L 23.34375 -52.9375 C 23.757812 -54.1875 24.386719 -54.8125 24.59375 -55.4375 C 26.050781 -58.355469 26.886719 -61.484375 27.929688 -64.609375 C 29.179688 -66.695312 30.011719 -69.613281 30.847656 -71.488281 C 31.261719 -72.527344 31.054688 -73.363281 31.472656 -74.613281 C 31.472656 -75.65625 32.097656 -76.90625 32.722656 -78.363281 C 33.347656 -79.824219 33.761719 -81.492188 34.804688 -83.367188 C 35.222656 -83.992188 35.640625 -85.035156 36.054688 -85.867188 C 36.890625 -88.160156 37.933594 -90.871094 38.972656 -92.953125 C 39.808594 -95.039062 41.265625 -97.121094 42.308594 -99.207031 C 43.769531 -101.5 45.851562 -103.792969 46.683594 -106.5 C 47.726562 -109.210938 49.601562 -111.503906 51.480469 -113.796875 C 52.730469 -116.089844 54.8125 -117.964844 56.691406 -119.839844 C 57.105469 -120.257812 57.316406 -120.671875 57.523438 -121.089844 L 58.980469 -122.339844 C 59.398438 -122.132812 59.605469 -122.132812 59.816406 -122.132812 C 58.980469 -118.589844 58.773438 -114.839844 57.523438 -111.503906 Z M 57.523438 -111.503906" transform="translate(389.63 414.375)"/></g></g></g><g><g><g><path d="M 59.191406 -28.554688 C 53.980469 -26.675781 51.480469 -26.050781 48.351562 -24.800781 C 44.808594 -23.550781 41.058594 -22.507812 37.308594 -21.050781 C 37.097656 -21.257812 37.308594 -21.46875 37.308594 -21.675781 L 35.847656 -26.261719 C 34.804688 -28.34375 33.972656 -29.59375 32.722656 -30.636719 C 32.304688 -30.847656 31.472656 -30.847656 31.261719 -31.054688 C 28.761719 -33.136719 25.84375 -33.136719 23.757812 -33.972656 C 23.34375 -34.179688 22.925781 -34.179688 22.71875 -34.390625 C 21.882812 -35.222656 21.46875 -36.265625 20.425781 -36.265625 C 18.757812 -36.265625 16.671875 -36.472656 14.796875 -35.640625 C 12.296875 -34.390625 10.210938 -32.722656 8.335938 -30.847656 C 7.085938 -29.59375 6.253906 -27.09375 4.792969 -25.011719 C 4.585938 -25.011719 4.167969 -22.300781 3.75 -21.050781 C 2.710938 -17.296875 0.832031 -13.339844 1.042969 -9.378906 C 1.25 -6.042969 1.457031 -2.085938 3.75 0.207031 C 5.210938 2.085938 6.878906 3.542969 9.378906 3.960938 C 11.046875 4.792969 13.546875 4.792969 15.632812 5.003906 C 16.046875 5.210938 16.882812 5.210938 17.714844 5.003906 C 19.589844 4.375 21.050781 3.960938 22.71875 2.917969 C 23.550781 2.917969 24.386719 2.5 25.011719 2.085938 C 25.84375 1.042969 27.09375 0 28.136719 -1.042969 L 28.554688 -1.457031 C 30.429688 -3.542969 31.472656 -5.628906 33.136719 -7.503906 C 33.347656 -7.710938 33.136719 -8.546875 33.347656 -8.753906 C 34.597656 -9.585938 34.597656 -10.835938 35.640625 -11.878906 C 35.640625 -11.878906 35.640625 -12.089844 35.640625 -12.089844 L 35.222656 -12.296875 C 35.222656 -13.128906 35.640625 -13.753906 35.847656 -14.378906 C 35.847656 -15.214844 36.054688 -15.632812 37.097656 -15.632812 C 37.515625 -15.632812 37.933594 -15.839844 38.558594 -15.839844 C 40.640625 -16.046875 42.308594 -16.257812 44.601562 -17.296875 L 47.519531 -18.550781 C 48.5625 -18.964844 50.230469 -18.964844 50.4375 -20.214844 C 50.4375 -20.425781 50.644531 -20.425781 50.855469 -20.425781 L 52.3125 -20.425781 C 53.144531 -20.425781 53.144531 -21.257812 53.980469 -21.882812 C 55.230469 -22.71875 56.898438 -23.96875 59.398438 -26.46875 L 59.398438 -28.34375 Z M 29.59375 -20.214844 L 23.757812 -20.214844 C 22.507812 -20.214844 21.882812 -20.425781 21.46875 -21.46875 C 20.839844 -22.507812 20.632812 -23.757812 20.632812 -24.800781 C 20.839844 -26.675781 22.300781 -27.511719 23.550781 -28.554688 C 24.175781 -29.179688 25.21875 -29.59375 26.46875 -29.59375 C 27.09375 -29.804688 27.511719 -29.804688 27.929688 -29.179688 C 28.96875 -27.511719 29.179688 -25.425781 29.59375 -23.757812 C 29.59375 -22.507812 29.386719 -21.257812 29.59375 -20.214844 Z M 27.71875 -13.964844 C 26.675781 -12.503906 26.261719 -10.835938 25.425781 -9.585938 C 24.386719 -7.917969 23.132812 -6.460938 21.882812 -5.210938 C 19.589844 -2.917969 16.671875 -0.832031 13.546875 0 C 10.835938 1.042969 8.335938 0.207031 8.128906 -1.457031 C 7.917969 -2.710938 7.503906 -3.75 7.503906 -5.210938 C 7.503906 -7.292969 7.503906 -9.796875 8.335938 -11.878906 C 8.546875 -12.921875 8.546875 -13.964844 8.960938 -15.214844 C 9.171875 -16.046875 9.585938 -17.296875 10.210938 -18.132812 C 11.253906 -20.214844 12.296875 -21.882812 13.339844 -24.386719 C 13.546875 -23.550781 13.964844 -22.71875 14.378906 -22.09375 C 14.796875 -20.839844 15.839844 -19.800781 17.296875 -18.964844 C 18.964844 -17.714844 21.257812 -16.671875 23.34375 -16.257812 C 24.386719 -15.839844 26.050781 -15.632812 27.09375 -15.632812 C 28.136719 -15.214844 28.554688 -15.007812 27.71875 -13.964844 Z M 27.71875 -13.964844" transform="translate(439.233 414.375)"/></g></g></g><g><g><g><path d="M 44.183594 28.136719 C 41.683594 27.929688 38.765625 26.675781 37.308594 24.800781 C 35.429688 21.675781 34.597656 18.550781 34.597656 15.214844 C 34.597656 11.046875 33.761719 6.253906 35.640625 2.085938 C 35.429688 -0.417969 36.054688 -2.917969 37.515625 -5.003906 C 37.933594 -5.628906 37.722656 -6.042969 38.347656 -7.085938 C 39.183594 -9.585938 39.597656 -12.089844 40.640625 -14.378906 C 41.476562 -16.257812 42.101562 -17.714844 41.058594 -19.800781 C 41.058594 -20.007812 41.476562 -20.632812 41.683594 -21.050781 C 41.890625 -20.839844 42.308594 -20.632812 42.726562 -19.589844 L 44.183594 -23.132812 C 45.644531 -24.386719 45.433594 -25.84375 44.394531 -27.511719 C 46.269531 -28.554688 48.351562 -29.179688 49.1875 -31.472656 C 50.644531 -34.597656 52.3125 -37.308594 52.730469 -40.222656 C 52.730469 -41.265625 53.355469 -42.101562 54.1875 -42.726562 C 55.855469 -43.769531 56.691406 -45.019531 57.105469 -46.894531 C 57.730469 -48.976562 58.355469 -50.644531 58.980469 -51.894531 C 62.523438 -58.566406 66.277344 -65.234375 69.402344 -71.695312 C 71.488281 -74.40625 72.113281 -78.15625 75.03125 -79.824219 C 75.238281 -81.074219 75.238281 -81.699219 75.445312 -82.324219 C 75.863281 -84.410156 76.074219 -85.035156 74.820312 -86.703125 C 70.863281 -89.828125 67.109375 -90.246094 62.941406 -91.078125 C 56.273438 -91.496094 51.0625 -90.453125 43.769531 -88.996094 L 34.597656 -86.492188 L 31.886719 -85.660156 C 27.300781 -84.199219 25.636719 -83.160156 22.300781 -81.699219 C 21.675781 -81.492188 21.050781 -80.03125 20.425781 -80.242188 C 18.339844 -80.449219 17.714844 -79.199219 17.296875 -77.738281 C 16.257812 -71.902344 15.839844 -67.109375 21.46875 -63.359375 C 25.636719 -60.648438 27.71875 -60.648438 30.847656 -61.066406 C 35.222656 -61.691406 37.308594 -64.402344 36.679688 -66.484375 C 32.304688 -65.652344 28.761719 -65.859375 25.84375 -66.484375 C 24.59375 -66.902344 23.757812 -67.320312 23.757812 -68.984375 C 23.757812 -70.445312 25.011719 -72.738281 27.511719 -74.820312 C 31.679688 -77.949219 44.183594 -82.535156 54.1875 -83.574219 C 59.816406 -84.199219 63.152344 -83.367188 64.191406 -82.324219 C 63.566406 -80.65625 61.898438 -77.949219 61.273438 -76.90625 C 59.816406 -73.570312 58.566406 -71.070312 56.898438 -68.152344 C 52.730469 -61.066406 49.1875 -52.9375 45.226562 -45.851562 C 40.851562 -36.890625 35.847656 -27.71875 32.511719 -18.132812 C 29.386719 -9.585938 27.09375 -0.625 27.09375 8.753906 C 26.675781 15.632812 28.554688 21.050781 32.097656 26.46875 C 34.804688 30.21875 42.726562 32.722656 44.183594 28.136719 Z M 44.183594 28.136719" transform="translate(527.81 414.375)"/></g></g></g><g><g><g><path d="M 78.992188 -27.71875 L 78.15625 -29.59375 L 77.53125 -30.011719 C 75.445312 -28.761719 73.78125 -27.71875 72.320312 -26.46875 C 67.527344 -23.34375 67.945312 -23.757812 62.941406 -20.632812 C 60.023438 -18.550781 56.898438 -16.671875 54.1875 -15.007812 C 51.269531 -12.921875 47.9375 -10.421875 44.601562 -8.960938 C 43.769531 -8.546875 42.933594 -8.546875 42.308594 -8.335938 C 41.683594 -8.128906 41.265625 -8.128906 40.851562 -8.335938 C 39.808594 -8.960938 39.183594 -9.796875 38.972656 -10.628906 C 37.722656 -13.546875 37.722656 -16.671875 38.347656 -19.589844 C 38.558594 -20.007812 38.558594 -20.425781 38.765625 -20.632812 C 39.390625 -22.300781 39.183594 -24.59375 39.183594 -24.59375 C 38.765625 -26.050781 37.933594 -27.09375 36.679688 -27.511719 C 34.179688 -27.71875 32.722656 -26.050781 31.054688 -25.84375 C 32.097656 -27.929688 33.761719 -29.804688 33.136719 -32.722656 C 32.304688 -37.515625 27.300781 -38.347656 22.925781 -39.183594 C 18.964844 -38.765625 15.421875 -36.265625 12.921875 -33.554688 C 10.421875 -30.429688 7.710938 -27.929688 5.417969 -24.386719 C 5.003906 -23.96875 4.585938 -22.925781 3.75 -21.882812 L 2.292969 -19.382812 C 1.875 -17.925781 1.25 -16.882812 1.042969 -15.632812 C 1.042969 -15.421875 1.042969 -15.421875 0.832031 -15.214844 C 0.417969 -13.964844 0 -12.921875 -0.625 -11.464844 C -1.457031 -8.335938 -0.832031 -5.628906 1.042969 -3.125 C 2.292969 -2.5 3.960938 -1.457031 4.375 -1.042969 C 5.003906 -0.832031 5.628906 -0.832031 6.042969 -0.832031 C 9.171875 0.417969 12.714844 0.417969 16.046875 -1.25 C 19.382812 -2.710938 22.71875 -5.417969 25.21875 -7.292969 C 25.636719 -7.503906 25.84375 -8.128906 26.261719 -8.546875 C 27.71875 -8.546875 27.71875 -10.628906 29.179688 -11.464844 C 29.386719 -11.046875 29.386719 -10.628906 29.804688 -10.421875 C 30.429688 -9.378906 30.21875 -8.960938 31.472656 -7.710938 C 32.304688 -5.835938 33.761719 -5.003906 35.015625 -3.335938 C 35.640625 -3.125 36.054688 -2.292969 36.679688 -2.085938 C 37.097656 -1.667969 38.347656 -1.667969 38.765625 -1.457031 C 39.597656 -1.25 41.476562 -1.667969 42.308594 -1.667969 C 42.933594 -1.667969 43.976562 -2.085938 44.183594 -2.085938 C 44.808594 -2.085938 45.851562 -2.5 46.269531 -2.710938 C 47.3125 -3.335938 47.9375 -3.125 49.1875 -3.75 C 51.269531 -5.210938 53.144531 -5.628906 54.8125 -7.503906 L 59.816406 -11.253906 L 62.941406 -13.964844 C 63.566406 -14.171875 65.027344 -15.839844 65.234375 -16.046875 C 66.277344 -16.464844 67.109375 -17.507812 67.734375 -18.132812 C 68.359375 -18.550781 69.820312 -19.175781 70.863281 -20.007812 C 73.570312 -21.882812 76.90625 -24.59375 78.992188 -27.71875 Z M 28.136719 -21.882812 C 25.011719 -18.550781 23.550781 -16.046875 20.425781 -12.714844 C 18.339844 -10.421875 16.464844 -8.960938 13.753906 -7.917969 C 11.671875 -7.085938 7.917969 -6.878906 5.628906 -6.878906 C 6.667969 -11.046875 8.546875 -14.589844 10.421875 -17.925781 C 12.714844 -21.882812 20.007812 -31.679688 26.261719 -32.722656 C 26.050781 -32.511719 24.386719 -23.34375 28.96875 -22.925781 L 29.179688 -22.925781 C 29.179688 -22.925781 28.34375 -21.882812 28.136719 -21.882812 Z M 28.136719 -21.882812" transform="translate(641.397 414.375)"/></g></g></g><g><g><g><path d="M 67.320312 20.839844 C 68.570312 19.382812 68.570312 18.964844 68.570312 18.339844 C 68.984375 17.925781 69.402344 17.714844 69.402344 17.296875 C 69.820312 16.464844 68.984375 15.007812 68.570312 15.421875 C 65.652344 16.464844 63.984375 15.421875 62.734375 12.921875 C 61.691406 8.960938 61.691406 8.128906 61.273438 6.878906 C 60.859375 5.210938 60.859375 3.335938 60.648438 1.457031 C 60.859375 0.207031 60.023438 -1.25 60.859375 -2.5 L 60.859375 -3.542969 C 60.859375 -4.585938 60.859375 -5.628906 60.648438 -6.253906 C 60.859375 -7.710938 60.859375 -9.796875 58.980469 -9.796875 L 57.730469 -11.671875 C 55.648438 -12.503906 54.8125 -13.546875 52.730469 -14.171875 C 52.3125 -14.589844 51.269531 -14.378906 50.644531 -14.171875 C 48.976562 -12.714844 48.144531 -12.296875 47.3125 -11.671875 C 45.851562 -10.835938 44.394531 -9.796875 43.140625 -8.753906 C 40.851562 -6.878906 37.515625 -3.542969 34.804688 -1.25 C 35.222656 -3.542969 35.640625 -8.128906 36.265625 -9.796875 C 37.097656 -11.464844 36.679688 -13.339844 36.890625 -15.214844 C 37.097656 -15.839844 36.890625 -16.671875 36.679688 -17.089844 C 36.265625 -18.757812 36.679688 -20.425781 36.054688 -21.882812 C 35.222656 -21.882812 34.597656 -22.300781 33.761719 -21.882812 C 31.679688 -21.257812 29.804688 -22.09375 28.554688 -23.550781 C 27.71875 -24.175781 27.09375 -24.386719 26.261719 -23.757812 C 24.59375 -22.507812 23.34375 -20.839844 21.882812 -19.382812 C 19.589844 -17.089844 18.132812 -13.964844 16.257812 -11.671875 C 13.546875 -7.085938 12.503906 -5.628906 11.878906 -4.375 C 11.671875 -4.167969 11.253906 -3.960938 10.628906 -3.75 C 11.046875 -6.042969 13.546875 -12.503906 13.753906 -14.171875 C 14.589844 -17.089844 15.007812 -19.800781 15.421875 -22.507812 C 16.046875 -24.59375 16.257812 -26.886719 15.839844 -28.96875 C 15.421875 -30.847656 14.378906 -31.261719 12.921875 -31.679688 C 11.671875 -32.097656 11.046875 -32.097656 9.378906 -32.304688 C 9.378906 -31.886719 8.546875 -31.054688 8.753906 -30.636719 C 9.171875 -29.804688 8.753906 -28.761719 8.753906 -27.71875 C 7.710938 -23.757812 7.085938 -19.589844 6.042969 -15.632812 C 4.167969 -8.753906 2.710938 -1.875 2.085938 5.210938 C 1.875 7.503906 2.292969 9.585938 3.542969 11.253906 L 6.253906 12.921875 L 7.917969 11.671875 C 8.128906 11.046875 8.546875 10.628906 8.960938 10.421875 C 9.796875 9.585938 11.046875 9.171875 11.671875 8.128906 C 13.546875 5.210938 15.214844 2.292969 17.296875 -0.625 L 18.550781 -3.335938 L 21.675781 -7.292969 C 22.71875 -8.753906 25.011719 -11.464844 27.511719 -14.589844 C 27.929688 -13.964844 28.136719 -13.546875 27.929688 -13.339844 C 27.511719 -10.210938 26.46875 -4.167969 26.050781 -1.25 L 27.300781 3.335938 C 27.300781 3.75 28.136719 4.167969 28.34375 4.585938 C 28.554688 5.210938 29.179688 5.210938 29.179688 5.628906 C 29.386719 6.460938 29.804688 6.878906 30.636719 6.667969 L 32.929688 7.710938 C 33.972656 7.917969 34.597656 8.128906 35.222656 8.128906 L 36.679688 6.878906 C 38.347656 5.628906 40.433594 5.003906 41.890625 3.125 C 44.183594 0.417969 47.101562 -1.667969 49.8125 -4.375 C 50.019531 -4.585938 50.4375 -4.585938 50.4375 -5.003906 C 51.6875 -6.042969 52.3125 -6.253906 52.9375 -6.042969 L 53.144531 -1.457031 C 52.9375 0.625 53.5625 3.542969 53.5625 6.253906 C 53.773438 9.171875 55.023438 11.878906 55.4375 13.753906 C 56.480469 16.257812 57.941406 18.550781 59.816406 19.589844 C 61.691406 21.257812 66.484375 21.257812 67.320312 20.839844 Z M 67.320312 20.839844" transform="translate(708.925 414.375)"/></g></g></g></svg>