<svg width="1293" height="315" viewBox="0 0 1293 315" fill="none" xmlns="http://www.w3.org/2000/svg">
<path d="M182.907 12.7149L302.672 309.418H230.016L208.078 250.074H95.1566L73.2191 309.418H0.578491L120.328 12.7149H182.907ZM185.063 190.73L151.985 104.418H151.266L118.172 190.73H185.063Z" fill="#FDF36D"/>
<path d="M314.172 309.418V124.918H377.828V144.34H378.547C395.086 127.801 412.711 119.527 431.422 119.527C440.524 119.527 449.571 120.727 458.563 123.121C467.551 125.52 476.18 129.238 484.453 134.277C492.735 139.309 499.446 146.441 504.594 155.668C509.75 164.898 512.328 175.629 512.328 187.855V309.418H448.672V205.121C448.672 195.527 445.614 187.137 439.5 179.949C433.395 172.754 425.426 169.152 415.594 169.152C406 169.152 397.305 172.871 389.516 180.309C381.723 187.738 377.828 196.008 377.828 205.121V309.418H314.172Z" fill="#FDF36D"/>
<path d="M632.093 119.527C642.644 119.527 653.07 120.727 663.375 123.121C673.687 125.52 681.359 127.918 686.39 130.324L693.953 133.918L673.093 175.637C658.707 167.961 645.039 164.121 632.093 164.121C624.894 164.121 619.796 164.902 616.796 166.465C613.804 168.02 612.312 170.957 612.312 175.277C612.312 176.238 612.429 177.195 612.671 178.152C612.91 179.113 613.39 180.012 614.109 180.855C614.828 181.691 615.484 182.41 616.078 183.012C616.679 183.605 617.703 184.262 619.14 184.98C620.578 185.699 621.71 186.242 622.546 186.605C623.39 186.961 624.769 187.496 626.687 188.215C628.613 188.934 630.054 189.477 631.015 189.84C631.972 190.195 633.585 190.73 635.859 191.449C638.14 192.168 639.878 192.648 641.078 192.887C648.515 195.055 654.988 197.457 660.5 200.09C666.019 202.727 671.832 206.324 677.937 210.887C684.05 215.441 688.785 221.195 692.14 228.152C695.503 235.102 697.187 243.008 697.187 251.871C697.187 293.832 668.054 314.809 609.796 314.809C596.609 314.809 584.078 312.77 572.203 308.699C560.335 304.629 551.769 300.551 546.5 296.465L538.578 289.996L564.484 246.48C566.398 248.16 568.914 250.137 572.031 252.418C575.144 254.691 580.773 257.805 588.921 261.762C597.078 265.723 604.156 267.699 610.156 267.699C623.343 267.699 629.937 263.262 629.937 254.387C629.937 250.316 628.253 247.145 624.89 244.871C621.535 242.59 615.843 240.012 607.812 237.137C599.781 234.254 593.488 231.613 588.937 229.215C577.425 223.227 568.312 216.457 561.593 208.902C554.882 201.352 551.531 191.34 551.531 178.871C551.531 160.176 558.781 145.613 573.281 135.184C587.789 124.746 607.394 119.527 632.093 119.527Z" fill="#FDF36D"/>
<path d="M788.893 124.918V212.668C788.893 230.898 791.647 243.852 797.158 251.527C802.678 259.195 812.033 263.027 825.221 263.027C838.408 263.027 847.756 259.195 853.268 251.527C858.775 243.852 861.533 230.898 861.533 212.668V124.918H925.19V228.137C925.19 258.824 917.213 280.945 901.268 294.496C885.33 308.039 859.975 314.809 825.205 314.809C790.443 314.809 765.088 308.039 749.143 294.496C733.205 280.945 725.236 258.824 725.236 228.137V124.918H788.893Z" fill="#FDF36D"/>
<path d="M1154.64 147.949C1171.9 166.887 1180.53 190.023 1180.53 217.355C1180.53 244.691 1171.9 267.77 1154.64 286.59C1137.38 305.402 1115.44 314.809 1088.83 314.809C1064.37 314.809 1044.23 306.059 1028.41 288.559H1027.69V309.418H964.749V0.121124H1028.41V142.543C1044.23 127.199 1064.37 119.527 1088.83 119.527C1115.44 119.527 1137.38 129.004 1154.64 147.949ZM1101.05 248.465C1108.96 240.434 1112.92 230.066 1112.92 217.355C1112.92 204.648 1108.78 194.223 1100.51 186.074C1092.24 177.918 1081.99 173.84 1069.76 173.84C1057.77 173.84 1047.64 177.918 1039.37 186.074C1031.1 194.223 1026.97 204.648 1026.97 217.355C1026.97 229.824 1030.98 240.137 1039.01 248.293C1047.05 256.441 1057.3 260.512 1069.76 260.512C1082.71 260.512 1093.14 256.496 1101.05 248.465Z" fill="#FDF36D"/>
<path d="M1251.38 232.449C1262.89 232.449 1272.66 236.473 1280.69 244.512C1288.72 252.543 1292.74 262.309 1292.74 273.809C1292.74 285.082 1288.72 294.73 1280.69 302.762C1272.66 310.793 1262.89 314.809 1251.38 314.809C1240.11 314.809 1230.46 310.793 1222.43 302.762C1214.39 294.73 1210.38 285.082 1210.38 273.809C1210.38 262.309 1214.39 252.543 1222.43 244.512C1230.46 236.473 1240.11 232.449 1251.38 232.449Z" fill="#FDF36D"/>
<path d="M110.046 193.059C111.921 193.059 112.757 192.227 113.171 191.184C114.421 188.684 114.839 187.016 114.839 184.516C114.839 181.805 115.257 172.844 115.882 170.133C117.132 166.383 118.175 162.215 119.218 158.672C121.511 152.418 123.175 145.957 125.054 139.496C127.761 134.91 129.222 129.703 131.097 124.492C131.514 123.656 131.722 121.988 133.804 121.574C136.097 121.363 138.6 120.324 141.1 120.324C145.061 119.699 148.811 119.699 152.354 119.074C154.44 118.656 156.94 118.863 159.022 118.863C160.901 118.656 162.358 118.445 164.651 118.863C166.319 119.281 168.612 118.031 170.905 118.238H172.78C174.237 118.238 175.28 118.238 176.741 118.445C177.78 118.445 179.866 118.238 181.116 118.445C180.698 120.531 180.491 121.156 180.284 121.363C179.866 123.242 174.03 142 172.569 151.586C171.944 155.129 172.155 158.254 172.78 162.008C173.612 164.301 174.237 166.383 175.28 167.844C176.948 170.133 177.78 171.387 180.284 172.637L181.323 171.387V169.719L180.491 167.844C179.866 165.758 179.448 163.047 179.448 160.34C179.448 157.84 180.073 156.379 180.284 155.129C180.284 153.879 180.698 152.836 180.909 151.168C180.698 150.961 181.534 148.043 181.948 148.043C182.577 147.418 182.991 146.375 183.616 145.125C184.452 142.832 184.866 141.164 186.12 139.082C186.534 137.621 186.534 136.164 185.077 134.91C183.616 133.246 184.241 132.621 186.327 131.996C186.952 131.785 187.577 131.367 188.202 130.953C189.245 128.66 190.077 124.074 190.702 122.617L191.745 119.906C192.788 119.699 196.331 120.738 197.374 120.949C197.999 121.156 198.413 121.156 199.042 121.156C201.96 120.949 202.792 123.449 207.378 123.242C208.628 123.449 212.378 123.242 210.71 120.949L206.335 117.613C202.167 115.32 201.124 114.902 199.042 114.277C195.913 113.238 195.288 113.027 194.038 112.402C195.081 110.527 195.706 107.816 196.956 105.941C197.581 103.648 199.249 100.73 200.292 98.2305L204.46 86.3516C206.128 83.4336 207.167 80.5156 208.003 77.8047C209.046 75.7227 208.835 73.4297 207.792 71.5547C206.542 69.0508 206.128 68.4258 203.21 68.4258C201.124 68.2188 199.874 69.2617 198.413 71.9688L197.788 73.6367C194.038 84.2656 190.288 95.1055 186.745 106.152C186.12 107.816 185.284 108.859 184.659 110.527C184.659 111.152 183.616 111.152 182.991 111.152C169.026 109.902 154.44 108.441 140.057 110.32C139.639 110.32 139.225 109.902 138.182 108.859C139.432 106.777 139.639 104.691 140.475 103.648C142.975 98.6484 144.018 94.0625 146.1 89.6836C146.936 85.5156 148.604 80.7227 149.229 77.3906C150.479 73.6367 150.897 70.0938 151.104 66.3438C151.311 63.6328 150.268 60.5078 149.018 57.7969C146.518 53.0039 143.393 49.668 137.975 48.2109C134.222 47.375 131.097 47.5859 128.179 49.668C125.054 51.9609 121.511 54.4609 118.382 58.2148C110.671 66.7578 104.21 76.1367 97.7489 85.3086C96.9168 87.1836 96.2918 88.6445 95.0379 90.1016C94.2059 91.5625 94.4129 93.6445 96.0809 95.1055C96.7059 96.3555 97.7489 97.6055 99.4168 98.4375C100.667 99.2734 101.917 98.4375 102.753 96.7734C103.378 93.4375 104.21 90.7266 106.503 88.2266C111.714 79.4727 118.175 70.5117 125.261 62.8008C127.761 59.2578 131.514 56.7539 135.472 54.2539C136.307 53.6289 136.722 53.6289 137.975 53.6289C139.432 53.0039 140.264 53.4219 140.682 54.4609C141.307 56.7539 141.932 58.4219 142.143 59.8828C143.393 65.0938 142.143 70.0938 141.518 75.0977C139.85 84.0586 132.764 100.105 129.011 106.984C127.972 109.902 127.136 111.152 124.011 110.734C121.925 110.734 120.882 112.402 120.675 114.695C120.882 115.945 121.511 118.238 121.925 119.281C122.55 121.781 122.343 124.281 120.882 126.16C120.257 128.66 119.843 130.535 118.8 132.828C117.132 135.953 116.089 139.707 114.839 142.832C114.214 145.332 113.589 146.793 113.589 149.293C113.589 149.918 112.964 150.75 112.132 152.004C111.921 152.629 111.503 153.254 111.503 153.879C108.378 162.633 106.71 171.801 105.671 180.766C105.253 183.473 104.835 187.016 105.253 191.184C106.71 192.227 107.96 193.059 110.046 193.059Z" fill="black"/>
<path d="M270.318 125.949C270.943 125.535 271.36 124.906 271.985 124.492C271.985 124.281 271.778 124.281 271.778 124.281L271.36 122.824L264.275 128.035C263.857 128.449 262.607 129.078 261.775 129.492C259.689 130.742 255.728 133.035 253.853 134.285L253.228 134.703L246.353 138.664C245.31 139.289 244.267 139.289 243.224 139.707C241.556 140.332 239.892 141.164 238.431 141.789C236.556 142.414 234.681 143.25 232.802 143.457C230.095 143.875 227.384 143.664 224.677 143.875C223.009 143.25 222.591 142.832 221.759 140.332C223.216 139.496 223.841 139.289 225.509 138.457C225.927 138.039 226.341 137.414 226.97 137.203C228.22 136.371 229.884 135.746 231.345 134.91C231.552 134.703 231.552 134.078 231.763 133.871L234.681 131.785C235.513 131.367 236.974 131.16 237.181 129.703C237.388 129.078 238.638 128.867 239.263 128.242C241.142 126.367 243.017 124.492 244.892 122.406C245.517 121.781 246.142 120.738 246.56 119.699C247.185 118.031 246.142 114.488 244.474 113.445C243.017 112.195 241.349 110.945 239.474 110.109C238.013 109.277 236.138 107.816 234.056 108.652C233.22 108.859 232.595 109.066 231.97 109.066C229.259 109.277 226.97 110.527 225.091 112.402C223.216 114.488 221.341 116.57 219.466 118.863C218.423 120.113 217.591 121.363 216.755 122.617C214.673 126.574 213.63 130.535 213.419 134.703C213.419 136.164 213.212 137.621 214.255 140.121C214.673 142.207 214.673 142.207 215.087 142.625C216.337 144.5 217.173 145.75 218.63 146.793C218.841 147 219.466 147.207 219.673 147.625C221.759 149.293 222.591 149.5 224.466 150.125C226.341 150.75 228.634 151.168 230.72 151.379C232.388 151.586 233.845 151.168 235.513 150.75C236.556 150.543 237.806 150.336 238.638 149.918C239.263 149.5 239.681 149.293 240.517 149.293C241.974 149.086 243.435 149.086 244.685 148.461C246.767 147.625 248.435 146.168 250.31 145.125C251.771 144.082 253.021 143.25 254.689 142.414L258.646 139.289C259.482 138.664 260.525 137.828 261.357 136.996C261.564 136.789 262.4 135.953 262.607 135.328V135.121C262.818 133.66 263.65 133.246 264.482 132.621C263.857 131.996 264.275 131.578 265.107 131.16L265.735 130.328C266.775 129.703 266.775 129.078 267.193 128.66L270.318 125.949ZM223.009 127.617C224.259 125.117 225.716 122.617 227.384 120.324C228.845 118.445 230.72 117.406 232.595 115.945C234.263 114.695 236.138 114.695 238.013 113.863C238.849 113.445 239.892 115.32 239.263 116.363C238.431 117.82 237.599 119.074 236.345 120.113L230.72 125.117L225.091 129.703C224.259 130.328 223.216 130.953 221.548 131.996C221.966 130.328 222.384 128.867 223.009 127.617Z" fill="black"/>
<path d="M335.346 26.5352C334.928 25.4922 334.928 24.4492 334.721 22.7852C334.928 22.5742 334.928 22.1563 334.721 21.9492L333.467 20.9063C332.635 20.0742 331.592 19.2422 330.549 18.8242C329.924 18.4063 328.885 17.9883 328.049 17.5742C325.131 16.7383 322.631 16.1133 320.339 18.4063C318.671 20.0742 316.796 21.9492 314.921 23.6172C313.046 25.4922 311.167 28.2031 309.71 30.9102L301.581 45.918C301.374 46.336 300.956 46.336 300.749 46.75L299.081 50.293L297.62 55.0899C297.413 55.9219 295.745 58.6328 295.327 58.8399C295.327 59.2578 290.327 71.9688 290.12 72.3867C289.284 73.6367 289.284 74.8867 288.866 76.1367C288.034 77.8047 287.409 79.6797 286.577 81.1406C285.741 84.0586 284.491 87.3945 283.659 90.5195C282.616 93.2305 282.198 96.1445 281.573 98.4375C280.948 101.355 280.741 102.398 280.116 104.691C279.698 106.359 279.698 106.777 279.698 107.609L278.448 114.488C276.987 122.824 276.987 124.906 276.78 127.617C276.155 133.66 276.155 137.203 276.78 142.414C277.198 144.707 277.612 147 278.237 148.875C279.073 150.75 279.491 152.418 280.53 153.879C281.78 155.336 282.616 156.586 283.659 157.84C284.284 158.465 285.741 159.715 286.784 160.129C290.534 161.797 292.413 161.59 295.12 160.965C299.499 159.715 301.788 151.379 298.456 152.836C295.12 155.129 293.245 156.586 289.909 155.129C288.452 154.504 286.577 151.586 285.741 149.5C284.073 145.543 283.241 140.746 283.034 135.121C282.823 131.578 283.659 125.949 284.073 122.617C284.491 119.906 285.534 115.945 286.577 114.277C289.284 111.984 292.62 108.441 294.913 105.941L299.081 101.98C299.706 101.355 299.706 100.316 300.749 99.4805C300.749 99.4805 300.956 99.2735 301.374 99.4805L312.628 85.3086C314.085 83.2227 326.799 60.7149 327.006 60.9219C327.424 59.6719 327.842 58.4219 327.631 57.1719C327.424 56.7539 327.006 56.1289 327.424 55.5039C327.842 55.0899 328.26 54.2539 328.674 53.6289L329.51 50.086L331.803 47.168L331.385 46.543C331.803 46.336 333.26 44.668 332.217 43.418L334.303 32.9961C333.678 31.3281 335.135 31.5352 335.135 29.8711L335.346 26.5352ZM325.549 34.8711C324.924 38.832 324.089 42.375 322.631 45.918C321.589 49.668 319.921 53.211 318.671 56.1289C316.589 60.5078 314.71 64.0508 312.835 68.2188C311.167 70.9297 309.917 73.4297 308.249 75.9297C306.999 77.8047 305.542 79.8906 303.874 81.5586C301.581 84.8906 298.663 88.6445 296.163 91.7695C294.288 93.8555 291.784 97.3985 290.12 99.2735L291.37 93.4375C291.784 92.1875 292.413 91.5625 292.62 90.9375C294.077 88.0195 294.913 84.8906 295.956 81.7656C297.206 79.6797 298.038 76.7617 298.874 74.8867C299.288 73.8477 299.081 73.0117 299.499 71.7617C299.499 70.7188 300.124 69.4688 300.749 68.0117C301.374 66.5508 301.788 64.8828 302.831 63.0078C303.249 62.3828 303.667 61.3399 304.081 60.5078C304.917 58.2149 305.96 55.5039 306.999 53.4219C307.835 51.336 309.292 49.2539 310.335 47.168C311.796 44.875 313.878 42.582 314.71 39.875C315.753 37.1641 317.628 34.8711 319.506 32.5781C320.756 30.2852 322.839 28.4102 324.717 26.5352C325.131 26.1172 325.342 25.7031 325.549 25.2852L327.006 24.0352C327.424 24.2422 327.631 24.2422 327.842 24.2422C327.006 27.7852 326.799 31.5352 325.549 34.8711Z" fill="black"/>
<path d="M384.95 26.5352C384.532 25.4922 384.532 24.4492 384.325 22.7852C384.532 22.5742 384.532 22.1563 384.325 21.9492L383.071 20.9063C382.239 20.0742 381.196 19.2422 380.153 18.8242C379.528 18.4063 378.489 17.9883 377.653 17.5742C374.735 16.7383 372.235 16.1133 369.943 18.4063C368.275 20.0742 366.4 21.9492 364.525 23.6172C362.65 25.4922 360.771 28.2031 359.314 30.9102L351.185 45.918C350.978 46.336 350.56 46.336 350.353 46.75L348.685 50.293L347.224 55.0899C347.017 55.9219 345.349 58.6328 344.931 58.8399C344.931 59.2578 339.931 71.9688 339.724 72.3867C338.888 73.6367 338.888 74.8867 338.47 76.1367C337.638 77.8047 337.013 79.6797 336.181 81.1406C335.345 84.0586 334.095 87.3945 333.263 90.5195C332.22 93.2305 331.802 96.1445 331.177 98.4375C330.552 101.355 330.345 102.398 329.72 104.691C329.302 106.359 329.302 106.777 329.302 107.609L328.052 114.488C326.591 122.824 326.591 124.906 326.384 127.617C325.759 133.66 325.759 137.203 326.384 142.414C326.802 144.707 327.216 147 327.841 148.875C328.677 150.75 329.095 152.418 330.134 153.879C331.384 155.336 332.22 156.586 333.263 157.84C333.888 158.465 335.345 159.715 336.388 160.129C340.138 161.797 342.017 161.59 344.724 160.965C349.103 159.715 351.392 151.379 348.06 152.836C344.724 155.129 342.849 156.586 339.513 155.129C338.056 154.504 336.181 151.586 335.345 149.5C333.677 145.543 332.845 140.746 332.638 135.121C332.427 131.578 333.263 125.949 333.677 122.617C334.095 119.906 335.138 115.945 336.181 114.277C338.888 111.984 342.224 108.441 344.517 105.941L348.685 101.98C349.31 101.355 349.31 100.316 350.353 99.4805C350.353 99.4805 350.56 99.2735 350.978 99.4805L362.232 85.3086C363.689 83.2227 376.403 60.7149 376.61 60.9219C377.028 59.6719 377.446 58.4219 377.235 57.1719C377.028 56.7539 376.61 56.1289 377.028 55.5039C377.446 55.0899 377.864 54.2539 378.278 53.6289L379.114 50.086L381.407 47.168L380.989 46.543C381.407 46.336 382.864 44.668 381.821 43.418L383.907 32.9961C383.282 31.3281 384.739 31.5352 384.739 29.8711L384.95 26.5352ZM375.153 34.8711C374.528 38.832 373.693 42.375 372.235 45.918C371.193 49.668 369.525 53.211 368.275 56.1289C366.193 60.5078 364.314 64.0508 362.439 68.2188C360.771 70.9297 359.521 73.4297 357.853 75.9297C356.603 77.8047 355.146 79.8906 353.478 81.5586C351.185 84.8906 348.267 88.6445 345.767 91.7695C343.892 93.8555 341.388 97.3985 339.724 99.2735L340.974 93.4375C341.388 92.1875 342.017 91.5625 342.224 90.9375C343.681 88.0195 344.517 84.8906 345.56 81.7656C346.81 79.6797 347.642 76.7617 348.478 74.8867C348.892 73.8477 348.685 73.0117 349.103 71.7617C349.103 70.7188 349.728 69.4688 350.353 68.0117C350.978 66.5508 351.392 64.8828 352.435 63.0078C352.853 62.3828 353.271 61.3399 353.685 60.5078C354.521 58.2149 355.564 55.5039 356.603 53.4219C357.439 51.336 358.896 49.2539 359.939 47.168C361.4 44.875 363.482 42.582 364.314 39.875C365.357 37.1641 367.232 34.8711 369.11 32.5781C370.36 30.2852 372.443 28.4102 374.321 26.5352C374.735 26.1172 374.946 25.7031 375.153 25.2852L376.61 24.0352C377.028 24.2422 377.235 24.2422 377.446 24.2422C376.61 27.7852 376.403 31.5352 375.153 34.8711Z" fill="black"/>
<path d="M426.424 117.82C421.213 119.699 418.713 120.324 415.585 121.574C412.042 122.824 408.292 123.867 404.542 125.324C404.331 125.117 404.542 124.906 404.542 124.699L403.081 120.113C402.038 118.031 401.206 116.781 399.956 115.738C399.538 115.527 398.706 115.527 398.495 115.32C395.995 113.238 393.077 113.238 390.991 112.402C390.577 112.195 390.159 112.195 389.952 111.984C389.116 111.152 388.702 110.109 387.659 110.109C385.991 110.109 383.905 109.902 382.03 110.734C379.53 111.984 377.444 113.652 375.569 115.527C374.319 116.781 373.487 119.281 372.026 121.363C371.819 121.363 371.401 124.074 370.983 125.324C369.944 129.078 368.065 133.035 368.276 136.996C368.483 140.332 368.69 144.289 370.983 146.582C372.444 148.461 374.112 149.918 376.612 150.336C378.28 151.168 380.78 151.168 382.866 151.379C383.28 151.586 384.116 151.586 384.948 151.379C386.823 150.75 388.284 150.336 389.952 149.293C390.784 149.293 391.62 148.875 392.245 148.461C393.077 147.418 394.327 146.375 395.37 145.332L395.788 144.918C397.663 142.832 398.706 140.746 400.37 138.871C400.581 138.664 400.37 137.828 400.581 137.621C401.831 136.789 401.831 135.539 402.874 134.496V134.285L402.456 134.078C402.456 133.246 402.874 132.621 403.081 131.996C403.081 131.16 403.288 130.742 404.331 130.742C404.749 130.742 405.167 130.535 405.792 130.535C407.874 130.328 409.542 130.117 411.835 129.078L414.753 127.824C415.796 127.41 417.463 127.41 417.671 126.16C417.671 125.949 417.878 125.949 418.088 125.949H419.546C420.378 125.949 420.378 125.117 421.213 124.492C422.463 123.656 424.131 122.406 426.631 119.906V118.031L426.424 117.82ZM396.827 126.16H390.991C389.741 126.16 389.116 125.949 388.702 124.906C388.073 123.867 387.866 122.617 387.866 121.574C388.073 119.699 389.534 118.863 390.784 117.82C391.409 117.195 392.452 116.781 393.702 116.781C394.327 116.57 394.745 116.57 395.163 117.195C396.202 118.863 396.413 120.949 396.827 122.617C396.827 123.867 396.62 125.117 396.827 126.16ZM394.952 132.41C393.909 133.871 393.495 135.539 392.659 136.789C391.62 138.457 390.366 139.914 389.116 141.164C386.823 143.457 383.905 145.543 380.78 146.375C378.069 147.418 375.569 146.582 375.362 144.918C375.151 143.664 374.737 142.625 374.737 141.164C374.737 139.082 374.737 136.578 375.569 134.496C375.78 133.453 375.78 132.41 376.194 131.16C376.405 130.328 376.819 129.078 377.444 128.242C378.487 126.16 379.53 124.492 380.573 121.988C380.78 122.824 381.198 123.656 381.612 124.281C382.03 125.535 383.073 126.574 384.53 127.41C386.198 128.66 388.491 129.703 390.577 130.117C391.62 130.535 393.284 130.742 394.327 130.742C395.37 131.16 395.788 131.367 394.952 132.41Z" fill="black"/>
<path d="M499.994 174.512C497.494 174.305 494.576 173.051 493.119 171.176C491.24 168.051 490.408 164.926 490.408 161.59C490.408 157.422 489.572 152.629 491.451 148.461C491.24 145.957 491.865 143.457 493.326 141.371C493.744 140.746 493.533 140.332 494.158 139.289C494.994 136.789 495.408 134.285 496.451 131.996C497.287 130.117 497.912 128.66 496.869 126.574C496.869 126.367 497.287 125.742 497.494 125.324C497.701 125.535 498.119 125.742 498.537 126.785L499.994 123.242C501.455 121.988 501.244 120.531 500.205 118.863C502.08 117.82 504.162 117.195 504.997 114.902C506.455 111.777 508.122 109.066 508.54 106.152C508.54 105.109 509.165 104.273 509.997 103.648C511.665 102.605 512.501 101.355 512.915 99.4805C513.54 97.3984 514.165 95.7305 514.79 94.4805C518.333 87.8086 522.087 81.1406 525.212 74.6797C527.298 71.9687 527.923 68.2187 530.841 66.5508C531.048 65.3008 531.048 64.6758 531.255 64.0508C531.673 61.9648 531.884 61.3398 530.63 59.6719C526.673 56.5469 522.919 56.1289 518.751 55.2969C512.083 54.8789 506.872 55.9219 499.58 57.3789L490.408 59.8828L487.697 60.7148C483.111 62.1758 481.447 63.2148 478.111 64.6758C477.486 64.8828 476.861 66.3437 476.236 66.1328C474.15 65.9258 473.525 67.1758 473.107 68.6367C472.068 74.4726 471.65 79.2656 477.279 83.0156C481.447 85.7266 483.529 85.7266 486.658 85.3086C491.033 84.6836 493.119 81.9726 492.49 79.8906C488.115 80.7226 484.572 80.5156 481.654 79.8906C480.404 79.4726 479.568 79.0547 479.568 77.3906C479.568 75.9297 480.822 73.6367 483.322 71.5547C487.49 68.4258 499.994 63.8398 509.997 62.8008C515.626 62.1758 518.962 63.0078 520.001 64.0508C519.376 65.7187 517.708 68.4258 517.083 69.4687C515.626 72.8047 514.376 75.3047 512.708 78.2226C508.54 85.3086 504.997 93.4375 501.037 100.523C496.662 109.484 491.658 118.656 488.322 128.242C485.197 136.789 482.904 145.75 482.904 155.129C482.486 162.008 484.365 167.426 487.908 172.844C490.615 176.594 498.537 179.098 499.994 174.512Z" fill="black"/>
<path d="M648.389 118.656L647.553 116.781L646.928 116.363C644.842 117.613 643.178 118.656 641.717 119.906C636.924 123.031 637.342 122.617 632.338 125.742C629.42 127.824 626.295 129.703 623.585 131.367C620.667 133.453 617.335 135.953 613.999 137.414C613.167 137.828 612.331 137.828 611.706 138.039C611.081 138.246 610.663 138.246 610.249 138.039C609.206 137.414 608.581 136.578 608.37 135.746C607.12 132.828 607.12 129.703 607.745 126.785C607.956 126.367 607.956 125.949 608.163 125.742C608.788 124.074 608.581 121.781 608.581 121.781C608.163 120.324 607.331 119.281 606.077 118.863C603.577 118.656 602.12 120.324 600.452 120.531C601.495 118.445 603.159 116.57 602.534 113.652C601.702 108.859 596.698 108.027 592.323 107.191C588.362 107.609 584.819 110.109 582.319 112.82C579.819 115.945 577.108 118.445 574.815 121.988C574.401 122.406 573.983 123.449 573.147 124.492L571.69 126.992C571.272 128.449 570.647 129.492 570.44 130.742C570.44 130.953 570.44 130.953 570.229 131.16C569.815 132.41 569.397 133.453 568.772 134.91C567.94 138.039 568.565 140.746 570.44 143.25C571.69 143.875 573.358 144.918 573.772 145.332C574.401 145.543 575.026 145.543 575.44 145.543C578.569 146.793 582.112 146.793 585.444 145.125C588.78 143.664 592.116 140.957 594.616 139.082C595.034 138.871 595.241 138.246 595.659 137.828C597.116 137.828 597.116 135.746 598.577 134.91C598.784 135.328 598.784 135.746 599.202 135.953C599.827 136.996 599.616 137.414 600.87 138.664C601.702 140.539 603.159 141.371 604.413 143.039C605.038 143.25 605.452 144.082 606.077 144.289C606.495 144.707 607.745 144.707 608.163 144.918C608.995 145.125 610.874 144.707 611.706 144.707C612.331 144.707 613.374 144.289 613.581 144.289C614.206 144.289 615.249 143.875 615.667 143.664C616.71 143.039 617.335 143.25 618.585 142.625C620.667 141.164 622.542 140.746 624.21 138.871L629.213 135.121L632.338 132.41C632.963 132.203 634.424 130.535 634.631 130.328C635.674 129.91 636.506 128.867 637.131 128.242C637.756 127.824 639.217 127.199 640.26 126.367C642.967 124.492 646.303 121.781 648.389 118.656ZM597.534 124.492C594.409 127.824 592.948 130.328 589.823 133.66C587.737 135.953 585.862 137.414 583.151 138.457C581.069 139.289 577.315 139.496 575.026 139.496C576.065 135.328 577.944 131.785 579.819 128.449C582.112 124.492 589.405 114.695 595.659 113.652C595.448 113.863 593.784 123.031 598.366 123.449H598.577C598.577 123.449 597.741 124.492 597.534 124.492Z" fill="black"/>
<path d="M704.245 167.215C705.495 165.758 705.495 165.34 705.495 164.715C705.909 164.301 706.327 164.09 706.327 163.672C706.745 162.84 705.909 161.383 705.495 161.797C702.577 162.84 700.909 161.797 699.659 159.297C698.616 155.336 698.616 154.504 698.198 153.254C697.784 151.586 697.784 149.711 697.573 147.832C697.784 146.582 696.948 145.125 697.784 143.875V142.832C697.784 141.789 697.784 140.746 697.573 140.121C697.784 138.664 697.784 136.578 695.905 136.578L694.655 134.703C692.573 133.871 691.737 132.828 689.655 132.203C689.237 131.785 688.195 131.996 687.57 132.203C685.902 133.66 685.07 134.078 684.237 134.703C682.777 135.539 681.32 136.578 680.066 137.621C677.777 139.496 674.441 142.832 671.73 145.125C672.148 142.832 672.566 138.246 673.191 136.578C674.023 134.91 673.605 133.035 673.816 131.16C674.023 130.535 673.816 129.703 673.605 129.285C673.191 127.617 673.605 125.949 672.98 124.492C672.148 124.492 671.523 124.074 670.687 124.492C668.605 125.117 666.73 124.281 665.48 122.824C664.644 122.199 664.019 121.988 663.187 122.617C661.519 123.867 660.269 125.535 658.808 126.992C656.515 129.285 655.058 132.41 653.183 134.703C650.472 139.289 649.429 140.746 648.804 142C648.597 142.207 648.179 142.414 647.554 142.625C647.972 140.332 650.472 133.871 650.679 132.203C651.515 129.285 651.933 126.574 652.347 123.867C652.972 121.781 653.183 119.488 652.765 117.406C652.347 115.527 651.304 115.113 649.847 114.695C648.597 114.277 647.972 114.277 646.304 114.07C646.304 114.488 645.472 115.32 645.679 115.738C646.097 116.57 645.679 117.613 645.679 118.656C644.636 122.617 644.011 126.785 642.968 130.742C641.093 137.621 639.636 144.5 639.011 151.586C638.8 153.879 639.218 155.961 640.468 157.629L643.179 159.297L644.843 158.047C645.054 157.422 645.472 157.004 645.886 156.797C646.722 155.961 647.972 155.547 648.597 154.504C650.472 151.586 652.14 148.668 654.222 145.75L655.476 143.039L658.601 139.082C659.644 137.621 661.937 134.91 664.437 131.785C664.855 132.41 665.062 132.828 664.855 133.035C664.437 136.164 663.394 142.207 662.976 145.125L664.226 149.711C664.226 150.125 665.062 150.543 665.269 150.961C665.48 151.586 666.105 151.586 666.105 152.004C666.312 152.836 666.73 153.254 667.562 153.043L669.855 154.086C670.898 154.293 671.523 154.504 672.148 154.504L673.605 153.254C675.273 152.004 677.359 151.379 678.816 149.5C681.109 146.793 684.027 144.707 686.737 142C686.945 141.789 687.362 141.789 687.362 141.371C688.612 140.332 689.237 140.121 689.862 140.332L690.07 144.918C689.862 147 690.487 149.918 690.487 152.629C690.698 155.547 691.948 158.254 692.362 160.129C693.405 162.633 694.866 164.926 696.741 165.965C698.616 167.633 703.409 167.633 704.245 167.215Z" fill="black"/>
</svg>
